<svg width="540" height="800" viewBox="0 0 540 800" fill="none" xmlns="http://www.w3.org/2000/svg">
<mask id="mask0_1237_17" style="mask-type:alpha" maskUnits="userSpaceOnUse" x="0" y="0" width="540" height="800">
<rect width="540" height="800" fill="#D9D9D9"/>
</mask>
<g mask="url(#mask0_1237_17)">
<path d="M471 600.278H279.485C100.907 600.278 -43.9023 745.168 -43.9023 924" stroke="url(#paint0_radial_1237_17)" stroke-width="80" stroke-miterlimit="10"/>
<path d="M-380 933C-380 663.923 -166.376 273 273.078 273C712.532 273 187.642 273 307 273" stroke="url(#paint1_linear_1237_17)" stroke-width="80" stroke-miterlimit="10"/>
<g filter="url(#filter0_d_1237_17)">
<path d="M-214 -60C-214 142.623 -53.3585 437 277.104 437C607.567 437 299.245 437 389 437" stroke="url(#paint2_radial_1237_17)" stroke-width="80" stroke-miterlimit="10" shape-rendering="crispEdges"/>
</g>
<path fill-rule="evenodd" clip-rule="evenodd" d="M-90 -60C-90 17.2703 -59.7375 109.501 0.815376 182.871C62.2553 257.317 155.577 313 279.745 313H281.042H282.334H283.621H284.902H286.177H287.447H288.712H289.972H291.226H292.474H293.718H294.956H296.189H297.416H298.638H299.855H301.067H302.273H303.474H304.67H305.861H307.047H308.227H309.403H310.573H311.738H312.898H314.053H315.203H316.347H317.487H318.621H319.751H320.876H321.995H323.11H324.22H325.324H326.424H327.519H328.609H329.694H330.774H331.849H332.92H333.985H335.046H336.102H337.153H338.199H339.241H340.278H341.31H342.337H343.36H344.378H345.391H346.4H347.404H348.403H349.398H350.388H351.373H352.354H353.331H354.302H355.27H356.232H357.191H358.144H359.093H360.038H360.978H361.914H362.846H363.773H364.695H365.614H366.527H367.437H368.342H369.243H370.139H371.032H371.919H372.803H373.682H374.558H375.428H376.295H377.158H378.016H378.87H379.72H380.566H381.408H382.245H383.079H383.908H384.733H385.555H386.372H387.185H387.994H388.799H389.6H390.398H391.191H391.98H392.766H393.547H394.324H395.098H395.868H396.634H397.396H398.154H398.908H399.659H400.406H401.149H401.888H402.624H403.355H404.084H404.808H405.529H406.246H406.959H407.669H408.375H409.077H409.776H410.471H411.163H411.851H412.535H413.216H413.894H414.568H415.238H415.905H416.569H417.229H417.886H418.539H419.189H419.835H420.478H421.118H421.754H422.387H423.017H423.643H424.266H424.886H425.502H426.116H426.726H427.333H427.936H428.536H429.134H429.728H430.319H430.906H431.491H432.073H432.651H433.226H433.799H434.368H434.934H435.497H436.057H436.614H437.169H437.72H438.268H438.813H439.356H439.895H440.432H440.965H441.496H442.024H442.549H443.072H443.591H444.108H444.622H445.133H445.641H446.147H446.65H447.15H447.647H448.142H448.634H449.124H449.61H450.095H450.576H451.055H451.531H452.005H452.477H452.945H453.411H453.875H454.336H454.795H455.251H455.705H456.156H456.605H457.052H457.496H457.937H458.377H458.814H459.248H459.68H460.11H460.538H460.963H461.386H461.807H462.226H462.642H463.056H463.468H463.878H464.285H464.691H465.094H465.495H465.894H466.291H466.686H467.078H467.469H467.858H468.244H468.629H469.011H469.392H469.771H470.147H470.522H470.895H471.265H471.634H472.001H472.366H472.73H473.091H473.451H473.809H474.164H474.519H474.871H475.222H475.57H475.918H476.263H476.607H476.949H477.289H477.628H477.965H478.3H478.634H478.966H479.297H479.626H479.953H480.279H480.603H480.926H481.247H481.567H481.885H482.202H482.518H482.832H483.144H483.455H483.765H484.073H484.38H484.686H484.99H485.293H485.595H485.895H486.194H486.492H486.788H487.084H487.378H487.671H487.962H488.253H488.542H488.83H489.117H489.403H489.688H489.971H490.254H490.536H490.816H491.095H491.374H491.651H385.928H386.203H386.477H386.751H387.023H387.295H387.566H387.835H388.104H388.372H388.64H388.906H389.171H389.436H389.7H389.963H390.225H390.487H390.748H391.008H391.267H391.526H391.784H392.041H392.298H392.554H392.809H393.064H393.318H393.571H393.824H394.077H394.329H394.58H394.831H395.081H395.331H395.58H395.829H396.078H396.326H396.573H396.82H397.067H397.314H397.56H397.805H398.051H398.296H398.541H398.785H399.029H399.273H399.517H399.76H400.004H400.247H400.489H400.732H400.975H401.217H401.459H401.701H401.943H402.185H402.427H402.669H402.91H403.152H403.393H403.635H403.877H404.118H404.36H404.602H404.844H405.086H405.327H405.57H405.812H406.054H406.297H406.539H406.782H407.025H407.268H407.512H407.755H407.999H408.243H408.488H408.732H408.977H409.223H409.469H409.715H409.961H410.208H410.455H410.702H410.95H411.199H411.448H411.697H411.947H412.197H412.448H412.699H412.951H413.203H413.456H413.71H413.964H414.219H414.474H414.73H414.986H415.244H415.501H415.76H416.019H416.279H416.54H416.802H417.064H417.327H417.591H417.855H418.121H418.387H418.654H418.922H419.191H419.46H419.731H420.003H420.275H420.548H420.823H421.098H421.374H421.652H421.93H422.209H422.49H422.771H423.053H423.337H423.622H423.907H424.194H424.482H424.772H425.062H425.354H425.646H425.94H426.235H426.532H426.83H427.128H427.429H427.73H428.033H428.337H428.643H428.95H429.258H429.567H429.878H430.191H430.505H430.82H431.136H431.455H431.774H431.891V354.324L540.998 273.446L431.891 192.567V233H431.774H431.455H431.136H430.82H430.505H430.191H429.878H429.567H429.258H428.95H428.643H428.337H428.033H427.73H427.429H427.128H426.83H426.532H426.235H425.94H425.646H425.354H425.062H424.772H424.482H424.194H423.907H423.622H423.337H423.053H422.771H422.49H422.209H421.93H421.652H421.374H421.098H420.823H420.548H420.275H420.003H419.731H419.46H419.191H418.922H418.654H418.387H418.121H417.855H417.591H417.327H417.064H416.802H416.54H416.279H416.019H415.76H415.501H415.244H414.986H414.73H414.474H414.219H413.964H413.71H413.456H413.203H412.951H412.699H412.448H412.197H411.947H411.697H411.448H411.199H410.95H410.702H410.455H410.208H409.961H409.715H409.469H409.223H408.977H408.732H408.488H408.243H407.999H407.755H407.512H407.268H407.025H406.782H406.539H406.297H406.054H405.812H405.57H405.327H405.086H404.844H404.602H404.36H404.118H403.877H403.635H403.393H403.152H402.91H402.669H402.427H402.185H401.943H401.701H401.459H401.217H400.975H400.732H400.489H400.247H400.004H399.76H399.517H399.273H399.029H398.785H398.541H398.296H398.051H397.805H397.56H397.314H397.067H396.82H396.573H396.326H396.078H395.829H395.58H395.331H395.081H394.831H394.58H394.329H394.077H393.824H393.571H393.318H393.064H392.809H392.554H392.298H392.041H391.784H391.526H391.267H391.008H390.748H390.487H390.225H389.963H389.7H389.436H389.171H388.906H388.64H388.372H388.104H387.835H387.566H387.295H387.023H386.751H386.477H386.203H385.928H491.651H491.374H491.095H490.816H490.536H490.254H489.971H489.688H489.403H489.117H488.83H488.542H488.253H487.962H487.671H487.378H487.084H486.788H486.492H486.194H485.895H485.595H485.293H484.99H484.686H484.38H484.073H483.765H483.455H483.144H482.832H482.518H482.202H481.885H481.567H481.247H480.926H480.603H480.279H479.953H479.626H479.297H478.966H478.634H478.3H477.965H477.628H477.289H476.949H476.607H476.263H475.918H475.57H475.222H474.871H474.519H474.164H473.809H473.451H473.091H472.73H472.366H472.001H471.634H471.265H470.895H470.522H470.147H469.771H469.392H469.011H468.629H468.244H467.858H467.469H467.078H466.686H466.291H465.894H465.495H465.094H464.691H464.285H463.878H463.468H463.056H462.642H462.226H461.807H461.386H460.963H460.538H460.11H459.68H459.248H458.814H458.377H457.937H457.496H457.052H456.605H456.156H455.705H455.251H454.795H454.336H453.875H453.411H452.945H452.477H452.005H451.531H451.055H450.576H450.095H449.61H449.124H448.634H448.142H447.647H447.15H446.65H446.147H445.641H445.133H444.622H444.108H443.591H443.072H442.549H442.024H441.496H440.965H440.432H439.895H439.356H438.813H438.268H437.72H437.169H436.614H436.057H435.497H434.934H434.368H433.799H433.226H432.651H432.073H431.491H430.906H430.319H429.728H429.134H428.536H427.936H427.333H426.726H426.116H425.502H424.886H424.266H423.643H423.017H422.387H421.754H421.118H420.478H419.835H419.189H418.539H417.886H417.229H416.569H415.905H415.238H414.568H413.894H413.216H412.535H411.851H411.163H410.471H409.776H409.077H408.375H407.669H406.959H406.246H405.529H404.808H404.084H403.355H402.624H401.888H401.149H400.406H399.659H398.908H398.154H397.396H396.634H395.868H395.098H394.324H393.547H392.766H391.98H391.191H390.398H389.6H388.799H387.994H387.185H386.372H385.555H384.733H383.908H383.079H382.245H381.408H380.566H379.72H378.87H378.016H377.158H376.295H375.428H374.558H373.682H372.803H371.919H371.032H370.139H369.243H368.342H367.437H366.527H365.614H364.695H363.773H362.846H361.914H360.978H360.038H359.093H358.144H357.191H356.232H355.27H354.302H353.331H352.354H351.373H350.388H349.398H348.403H347.404H346.4H345.391H344.378H343.36H342.337H341.31H340.278H339.241H338.199H337.153H336.102H335.046H333.985H332.92H331.849H330.774H329.694H328.609H327.519H326.424H325.324H324.22H323.11H321.995H320.876H319.751H318.621H317.487H316.347H315.203H314.053H312.898H311.738H310.573H309.403H308.227H307.047H305.861H304.67H303.474H302.273H301.067H299.855H298.638H297.416H296.189H294.956H293.718H292.474H291.226H289.972H288.712H287.447H286.177H284.902H283.621H282.334H281.042H279.745C182.028 233 110.478 190.064 62.5162 131.95C13.6678 72.761 -10 -1.50872 -10 -60H-90Z" fill="url(#paint3_linear_1237_17)"/>
<path fill-rule="evenodd" clip-rule="evenodd" d="M431.891 475.326V515.757L540.998 434.879L431.891 354V395.326L271.104 395.326C92.6143 395.326 -41.0529 475.323 -129.248 582.413C-216.558 688.428 -260 821.648 -260 932.326H-180C-180 840.381 -143.121 725.1 -67.4947 633.271C7.24646 542.517 119.131 475.326 271.104 475.326L431.891 475.326Z" fill="url(#paint4_linear_1237_17)"/>
<path fill-rule="evenodd" clip-rule="evenodd" d="M-90 267C-90 344.27 -59.7375 436.501 0.815376 509.871C62.2553 584.317 155.577 640 279.745 640H281.042H282.334H283.621H284.902H286.177H287.447H288.712H289.972H291.226H292.474H293.718H294.956H296.189H297.416H298.638H299.855H301.067H302.273H303.474H304.67H305.861H307.047H308.227H309.403H310.573H311.738H312.898H314.053H315.203H316.347H317.487H318.621H319.751H320.876H321.995H323.11H324.22H325.324H326.424H327.519H328.609H329.694H330.774H331.849H332.92H333.985H335.046H336.102H337.153H338.199H339.241H340.278H341.31H342.337H343.36H344.378H345.391H346.4H347.404H348.403H349.398H350.388H351.373H352.354H353.331H354.302H355.27H356.232H357.191H358.144H359.093H360.038H360.978H361.914H362.846H363.773H364.695H365.614H366.527H367.437H368.342H369.243H370.139H371.032H371.919H372.803H373.682H374.558H375.428H376.295H377.158H378.016H378.87H379.72H380.566H381.408H382.245H383.079H383.908H384.733H385.555H386.372H387.185H387.994H388.799H389.6H390.398H391.191H391.98H392.766H393.547H394.324H395.098H395.868H396.634H397.396H398.154H398.908H399.659H400.406H401.149H401.888H402.624H403.355H404.084H404.808H405.529H406.246H406.959H407.669H408.375H409.077H409.776H410.471H411.163H411.851H412.535H413.216H413.894H414.568H415.238H415.905H416.569H417.229H417.886H418.539H419.189H419.835H420.478H421.118H421.754H422.387H423.017H423.643H424.266H424.886H425.502H426.116H426.726H427.333H427.936H428.536H429.134H429.728H430.319H430.906H431.491H432.073H432.651H433.226H433.799H328.368H328.934H329.497H330.057H330.614H331.169H331.72H332.268H332.813H333.356H333.895H334.432H334.965H335.496H336.024H336.549H337.072H337.591H338.108H338.622H339.133H339.641H340.147H340.65H341.15H341.647H342.142H342.634H343.124H343.61H344.095H344.576H345.055H345.531H346.005H346.477H346.945H347.411H347.875H348.336H348.795H349.251H349.705H350.156H350.605H351.052H351.496H351.937H352.377H352.814H353.248H353.68H354.11H354.538H354.963H355.386H355.807H356.226H356.642H357.056H357.468H357.878H358.285H358.691H359.094H359.495H359.894H360.291H360.686H361.078H361.469H361.858H362.244H362.629H363.011H363.392H363.771H364.147H364.522H364.895H365.265H365.634H366.001H366.366H366.73H367.091H367.451H367.809H368.164H368.519H368.871H369.222H369.57H369.918H370.263H370.607H370.949H371.289H371.628H371.965H372.3H372.634H372.966H373.297H373.626H373.953H374.279H374.603H374.926H375.247H375.567H375.885H376.202H376.518H376.832H377.144H377.455H377.765H378.073H378.38H378.686H378.99H379.293H379.595H379.895H380.194H380.492H380.788H381.084H381.378H381.671H381.962H382.253H382.542H382.83H383.117H383.403H383.688H383.971H384.254H384.536H384.816H385.095H385.374H385.651H385.928H386.203H386.477H386.751H387.023H387.295H387.566H387.835H388.104H388.372H388.64H388.906H389.171H389.436H389.7H389.963H390.225H390.487H390.748H391.008H391.267H391.526H391.784H392.041H392.298H392.554H392.809H393.064H393.318H393.571H393.824H394.077H394.329H394.58H394.831H395.081H395.331H395.58H395.829H396.078H396.326H396.573H396.82H397.067H397.314H397.56H397.805H398.051H398.296H398.541H398.785H399.029H399.273H399.517H399.76H400.004H400.247H400.489H400.732H400.975H401.217H401.459H401.701H401.943H402.185H402.427H402.669H402.91H403.152H403.393H403.635H403.877H404.118H404.36H404.602H404.844H405.086H405.327H405.57H405.812H406.054H406.297H406.539H406.782H407.025H407.268H407.512H407.755H407.999H408.243H408.488H408.732H408.977H409.223H409.469H409.715H409.961H410.208H410.455H410.702H410.95H411.199H411.448H411.697H411.947H412.197H412.448H412.699H412.951H413.203H413.456H413.71H413.964H414.219H414.474H414.73H414.986H415.244H415.501H415.76H416.019H416.279H416.54H416.802H417.064H417.327H417.591H417.855H418.121H418.387H418.654H418.922H419.191H419.46H419.731H420.003H420.275H420.548H420.823H421.098H421.374H421.652H421.93H422.209H422.49H422.771H423.053H423.337H423.622H423.907H424.194H424.482H424.772H425.062H425.354H425.646H425.94H426.235H426.532H426.83H427.128H427.429H427.73H428.033H428.337H428.643H428.95H429.258H429.567H429.878H430.191H430.505H430.82H431.136H431.455H431.774H431.891V681.324L540.998 600.446L431.891 519.567V560H431.774H431.455H431.136H430.82H430.505H430.191H429.878H429.567H429.258H428.95H428.643H428.337H428.033H427.73H427.429H427.128H426.83H426.532H426.235H425.94H425.646H425.354H425.062H424.772H424.482H424.194H423.907H423.622H423.337H423.053H422.771H422.49H422.209H421.93H421.652H421.374H421.098H420.823H420.548H420.275H420.003H419.731H419.46H419.191H418.922H418.654H418.387H418.121H417.855H417.591H417.327H417.064H416.802H416.54H416.279H416.019H415.76H415.501H415.244H414.986H414.73H414.474H414.219H413.964H413.71H413.456H413.203H412.951H412.699H412.448H412.197H411.947H411.697H411.448H411.199H410.95H410.702H410.455H410.208H409.961H409.715H409.469H409.223H408.977H408.732H408.488H408.243H407.999H407.755H407.512H407.268H407.025H406.782H406.539H406.297H406.054H405.812H405.57H405.327H405.086H404.844H404.602H404.36H404.118H403.877H403.635H403.393H403.152H402.91H402.669H402.427H402.185H401.943H401.701H401.459H401.217H400.975H400.732H400.489H400.247H400.004H399.76H399.517H399.273H399.029H398.785H398.541H398.296H398.051H397.805H397.56H397.314H397.067H396.82H396.573H396.326H396.078H395.829H395.58H395.331H395.081H394.831H394.58H394.329H394.077H393.824H393.571H393.318H393.064H392.809H392.554H392.298H392.041H391.784H391.526H391.267H391.008H390.748H390.487H390.225H389.963H389.7H389.436H389.171H388.906H388.64H388.372H388.104H387.835H387.566H387.295H387.023H386.751H386.477H386.203H385.928H385.651H385.374H385.095H384.816H384.536H384.254H383.971H383.688H383.403H383.117H382.83H382.542H382.253H381.962H381.671H381.378H381.084H380.788H380.492H380.194H379.895H379.595H379.293H378.99H378.686H378.38H378.073H377.765H377.455H377.144H376.832H376.518H376.202H375.885H375.567H375.247H374.926H374.603H374.279H373.953H373.626H373.297H372.966H372.634H372.3H371.965H371.628H371.289H370.949H370.607H370.263H369.918H369.57H369.222H368.871H368.519H368.164H367.809H367.451H367.091H366.73H366.366H366.001H365.634H365.265H364.895H364.522H364.147H363.771H363.392H363.011H362.629H362.244H361.858H361.469H361.078H360.686H360.291H359.894H359.495H359.094H358.691H358.285H357.878H357.468H357.056H356.642H356.226H355.807H355.386H354.963H354.538H354.11H353.68H353.248H352.814H352.377H351.937H351.496H351.052H350.605H350.156H349.705H349.251H348.795H348.336H347.875H347.411H346.945H346.477H346.005H345.531H345.055H344.576H344.095H343.61H343.124H342.634H342.142H341.647H341.15H340.65H340.147H339.641H339.133H338.622H338.108H337.591H337.072H336.549H336.024H335.496H334.965H334.432H333.895H333.356H332.813H332.268H331.72H331.169H330.614H330.057H329.497H328.934H328.368H433.799H433.226H432.651H432.073H431.491H430.906H430.319H429.728H429.134H428.536H427.936H427.333H426.726H426.116H425.502H424.886H424.266H423.643H423.017H422.387H421.754H421.118H420.478H419.835H419.189H418.539H417.886H417.229H416.569H415.905H415.238H414.568H413.894H413.216H412.535H411.851H411.163H410.471H409.776H409.077H408.375H407.669H406.959H406.246H405.529H404.808H404.084H403.355H402.624H401.888H401.149H400.406H399.659H398.908H398.154H397.396H396.634H395.868H395.098H394.324H393.547H392.766H391.98H391.191H390.398H389.6H388.799H387.994H387.185H386.372H385.555H384.733H383.908H383.079H382.245H381.408H380.566H379.72H378.87H378.016H377.158H376.295H375.428H374.558H373.682H372.803H371.919H371.032H370.139H369.243H368.342H367.437H366.527H365.614H364.695H363.773H362.846H361.914H360.978H360.038H359.093H358.144H357.191H356.232H355.27H354.302H353.331H352.354H351.373H350.388H349.398H348.403H347.404H346.4H345.391H344.378H343.36H342.337H341.31H340.278H339.241H338.199H337.153H336.102H335.046H333.985H332.92H331.849H330.774H329.694H328.609H327.519H326.424H325.324H324.22H323.11H321.995H320.876H319.751H318.621H317.487H316.347H315.203H314.053H312.898H311.738H310.573H309.403H308.227H307.047H305.861H304.67H303.474H302.273H301.067H299.855H298.638H297.416H296.189H294.956H293.718H292.474H291.226H289.972H288.712H287.447H286.177H284.902H283.621H282.334H281.042H279.745C182.028 560 110.478 517.064 62.5162 458.95C13.6678 399.761 -10 325.491 -10 267H-90Z" fill="url(#paint5_linear_1237_17)"/>
</g>
<defs>
<filter id="filter0_d_1237_17" x="-307" y="-100" width="793.867" height="625" filterUnits="userSpaceOnUse" color-interpolation-filters="sRGB">
<feFlood flood-opacity="0" result="BackgroundImageFix"/>
<feColorMatrix in="SourceAlpha" type="matrix" values="0 0 0 0 0 0 0 0 0 0 0 0 0 0 0 0 0 0 127 0" result="hardAlpha"/>
<feOffset dx="-9" dy="4"/>
<feGaussianBlur stdDeviation="22"/>
<feComposite in2="hardAlpha" operator="out"/>
<feColorMatrix type="matrix" values="0 0 0 0 0.25098 0 0 0 0 0.517647 0 0 0 0 0.745098 0 0 0 0.1 0"/>
<feBlend mode="normal" in2="BackgroundImageFix" result="effect1_dropShadow_1237_17"/>
<feBlend mode="normal" in="SourceGraphic" in2="effect1_dropShadow_1237_17" result="shape"/>
</filter>
<radialGradient id="paint0_radial_1237_17" cx="0" cy="0" r="1" gradientUnits="userSpaceOnUse" gradientTransform="translate(481 632) rotate(164.903) scale(936.833 1226.96)">
<stop offset="0.0655321" stop-color="#0B9CD9"/>
<stop offset="0.51831" stop-color="#FBB04D" stop-opacity="0.69"/>
<stop offset="0.963494" stop-color="#E6F3F8" stop-opacity="0.25"/>
</radialGradient>
<linearGradient id="paint1_linear_1237_17" x1="452" y1="873.5" x2="-429.435" y2="636.874" gradientUnits="userSpaceOnUse">
<stop offset="0.210928" stop-color="#0B9CD9"/>
<stop offset="0.592645" stop-color="#FBB04D" stop-opacity="0.84"/>
<stop offset="0.742245" stop-color="#E6F3F8" stop-opacity="0.25"/>
</linearGradient>
<radialGradient id="paint2_radial_1237_17" cx="0" cy="0" r="1" gradientUnits="userSpaceOnUse" gradientTransform="translate(544 450) rotate(-159.164) scale(981.168 1538.99)">
<stop offset="0.25179" stop-color="#FBB04D"/>
<stop offset="0.471311" stop-color="#009EDB" stop-opacity="0.87"/>
<stop offset="0.779778" stop-color="#009EDB" stop-opacity="0.05"/>
<stop offset="0.916589" stop-color="#E6F3F8" stop-opacity="0"/>
</radialGradient>
<linearGradient id="paint3_linear_1237_17" x1="-158.5" y1="223" x2="454" y2="223" gradientUnits="userSpaceOnUse">
<stop stop-color="#009EDB" stop-opacity="0"/>
<stop offset="1" stop-color="#0094D7"/>
</linearGradient>
<linearGradient id="paint4_linear_1237_17" x1="442" y1="498.326" x2="-288.23" y2="467.877" gradientUnits="userSpaceOnUse">
<stop offset="0.0213742" stop-color="#FBB04D"/>
<stop offset="0.6" stop-color="#0B9CD9" stop-opacity="0.59"/>
<stop offset="0.922169" stop-color="#0B9CD9" stop-opacity="0"/>
</linearGradient>
<linearGradient id="paint5_linear_1237_17" x1="-146.5" y1="550" x2="451" y2="550" gradientUnits="userSpaceOnUse">
<stop stop-color="#009EDB" stop-opacity="0"/>
<stop offset="1" stop-color="#0094D7"/>
</linearGradient>
</defs>
</svg>
