<svg width="1019" height="293" viewBox="0 0 1019 293" fill="none" xmlns="http://www.w3.org/2000/svg">
<g clip-path="url(#clip0_2054_65)">
<g filter="url(#filter0_d_2054_65)">
<path d="M-187.297 -232C-187.297 -73.1274 -61.3411 157.688 197.768 157.688C456.877 157.688 830.539 157.688 900.914 157.688" stroke="url(#paint0_linear_2054_65)" stroke-width="80" stroke-miterlimit="10" shape-rendering="crispEdges"/>
</g>
<path fill-rule="evenodd" clip-rule="evenodd" d="M900.547 197.687V219L985.547 155.5L900.547 92V117.687L193.065 117.687C50.2517 117.687 -56.9056 181.794 -127.51 267.525C-197.229 352.181 -232 458.572 -232 547.375H-152C-152 477.305 -123.793 388.853 -65.7567 318.383C-8.60626 248.988 76.7687 197.687 193.065 197.687L900.547 197.687Z" fill="url(#paint1_linear_2054_65)"/>
</g>
<defs>
<filter id="filter0_d_2054_65" x="-280.297" y="-272" width="1216.21" height="517.688" filterUnits="userSpaceOnUse" color-interpolation-filters="sRGB">
<feFlood flood-opacity="0" result="BackgroundImageFix"/>
<feColorMatrix in="SourceAlpha" type="matrix" values="0 0 0 0 0 0 0 0 0 0 0 0 0 0 0 0 0 0 127 0" result="hardAlpha"/>
<feOffset dx="-9" dy="4"/>
<feGaussianBlur stdDeviation="22"/>
<feComposite in2="hardAlpha" operator="out"/>
<feColorMatrix type="matrix" values="0 0 0 0 0.25098 0 0 0 0 0.517647 0 0 0 0 0.745098 0 0 0 0.1 0"/>
<feBlend mode="normal" in2="BackgroundImageFix" result="effect1_dropShadow_2054_65"/>
<feBlend mode="normal" in="SourceGraphic" in2="effect1_dropShadow_2054_65" result="shape"/>
</filter>
<linearGradient id="paint0_linear_2054_65" x1="568.978" y1="177.756" x2="-198.906" y2="-75.1731" gradientUnits="userSpaceOnUse">
<stop offset="0.208942" stop-color="#0095D7"/>
<stop offset="0.361082" stop-color="#0095D7"/>
<stop offset="0.872169" stop-color="#0097D8" stop-opacity="0"/>
</linearGradient>
<linearGradient id="paint1_linear_2054_65" x1="888.897" y1="156.823" x2="-79.8795" y2="229.328" gradientUnits="userSpaceOnUse">
<stop offset="0.0213742" stop-color="#FBB04D"/>
<stop offset="0.512169" stop-color="#0B9CD9" stop-opacity="0.59"/>
<stop offset="0.922169" stop-color="#0B9CD9" stop-opacity="0"/>
</linearGradient>
<clipPath id="clip0_2054_65">
<rect width="1019" height="293" fill="white"/>
</clipPath>
</defs>
</svg>
