<svg width="986" height="800" viewBox="0 0 986 800" fill="none" xmlns="http://www.w3.org/2000/svg">
<path fill-rule="evenodd" clip-rule="evenodd" d="M-124.354 244.475C-194.073 159.819 -228.844 53.4278 -228.844 -35.375H-148.844C-148.844 34.6949 -120.637 123.147 -62.6005 193.617C-5.45001 263.012 79.925 314.313 196.221 314.313H549.367V394.313H196.221C53.408 394.313 -53.7494 330.206 -124.354 244.475Z" fill="url(#paint0_linear_1466_3)"/>
<path d="M735.335 494.097H198.089C58.0695 494.097 -55.4727 607.702 -55.4727 747.92" stroke="url(#paint1_linear_1466_3)" stroke-width="80" stroke-miterlimit="10"/>
<path d="M-324 734.591C-324 523.613 -156.502 217.098 188.065 217.098C532.632 217.098 311.216 217.098 404.802 217.098" stroke="url(#paint2_linear_1466_3)" stroke-width="80" stroke-miterlimit="10"/>
<g filter="url(#filter0_d_1466_3)">
<path d="M-187.297 248C-187.297 406.873 -61.3411 637.688 197.768 637.688C456.877 637.688 830.539 637.688 900.914 637.688" stroke="url(#paint3_linear_1466_3)" stroke-width="80" stroke-miterlimit="10" shape-rendering="crispEdges"/>
</g>
<path fill-rule="evenodd" clip-rule="evenodd" d="M539 394.312V416L624 352.5L539 289V314.312L191.518 314.312C48.7048 314.312 -58.4525 378.419 -129.057 464.15C-198.776 548.806 -233.547 655.197 -233.547 744H-153.547C-153.547 673.93 -125.34 585.478 -67.3036 515.008C-10.1531 445.613 75.2218 394.312 191.518 394.312L539 394.312Z" fill="url(#paint4_linear_1466_3)"/>
<path fill-rule="evenodd" clip-rule="evenodd" d="M-101 -44C-101 18.6134 -76.5599 92.8683 -27.8179 151.928C21.811 212.063 97.3334 257.099 197.546 257.099H380V281L465 217.5L380 154V177.099H197.546C123.784 177.099 70.0332 144.809 33.8829 101.006C-3.15455 56.1288 -21 -0.165565 -21 -44H-101Z" fill="url(#paint5_linear_1466_3)"/>
<path fill-rule="evenodd" clip-rule="evenodd" d="M-359 -23.6143C-359 91.2562 -313.834 229.606 -223.04 339.699C-131.359 450.866 7.54477 533.878 193.065 533.878L732 533.878V555L818 491.5L732 428V453.878L193.065 453.878C34.0181 453.878 -83.1105 383.633 -161.321 288.799C-240.418 192.89 -279 72.493 -279 -23.6143H-359Z" fill="url(#paint6_linear_1466_3)"/>
<path fill-rule="evenodd" clip-rule="evenodd" d="M900.547 677.687V699L985.547 635.5L900.547 572V597.687L193.065 597.687C50.2517 597.687 -56.9056 661.794 -127.51 747.525C-197.229 832.181 -232 938.572 -232 1027.38H-152C-152 957.305 -123.793 868.853 -65.7567 798.383C-8.60626 728.988 76.7687 677.687 193.065 677.687L900.547 677.687Z" fill="url(#paint7_linear_1466_3)"/>
<defs>
<filter id="filter0_d_1466_3" x="-280.297" y="208" width="1216.21" height="517.688" filterUnits="userSpaceOnUse" color-interpolation-filters="sRGB">
<feFlood flood-opacity="0" result="BackgroundImageFix"/>
<feColorMatrix in="SourceAlpha" type="matrix" values="0 0 0 0 0 0 0 0 0 0 0 0 0 0 0 0 0 0 127 0" result="hardAlpha"/>
<feOffset dx="-9" dy="4"/>
<feGaussianBlur stdDeviation="22"/>
<feComposite in2="hardAlpha" operator="out"/>
<feColorMatrix type="matrix" values="0 0 0 0 0.25098 0 0 0 0 0.517647 0 0 0 0 0.745098 0 0 0 0.1 0"/>
<feBlend mode="normal" in2="BackgroundImageFix" result="effect1_dropShadow_1466_3"/>
<feBlend mode="normal" in="SourceGraphic" in2="effect1_dropShadow_1466_3" result="shape"/>
</filter>
<linearGradient id="paint0_linear_1466_3" x1="-170.768" y1="258.119" x2="459.597" y2="276.395" gradientUnits="userSpaceOnUse">
<stop stop-color="#009EDB" stop-opacity="0"/>
<stop offset="1" stop-color="#0094D7"/>
</linearGradient>
<linearGradient id="paint1_linear_1466_3" x1="437.1" y1="760.992" x2="-63.0395" y2="596.263" gradientUnits="userSpaceOnUse">
<stop offset="0.374867" stop-color="#FBB04D"/>
<stop offset="0.659972" stop-color="#FBAB48"/>
<stop offset="1" stop-color="#FBA946" stop-opacity="0"/>
</linearGradient>
<linearGradient id="paint2_linear_1466_3" x1="422.636" y1="190.448" x2="-370.171" y2="384.587" gradientUnits="userSpaceOnUse">
<stop offset="0.374867" stop-color="#FBB04D"/>
<stop offset="0.659972" stop-color="#FBAB48"/>
<stop offset="1" stop-color="#FBA946" stop-opacity="0"/>
</linearGradient>
<linearGradient id="paint3_linear_1466_3" x1="568.978" y1="657.756" x2="-198.906" y2="404.827" gradientUnits="userSpaceOnUse">
<stop offset="0.208942" stop-color="#0095D7"/>
<stop offset="0.361082" stop-color="#0095D7"/>
<stop offset="0.872169" stop-color="#0097D8" stop-opacity="0"/>
</linearGradient>
<linearGradient id="paint4_linear_1466_3" x1="555.927" y1="353.77" x2="-128.322" y2="389.868" gradientUnits="userSpaceOnUse">
<stop offset="0.0213742" stop-color="#FBB04D"/>
<stop offset="0.512169" stop-color="#0B9CD9" stop-opacity="0.59"/>
<stop offset="0.922169" stop-color="#0B9CD9" stop-opacity="0"/>
</linearGradient>
<linearGradient id="paint5_linear_1466_3" x1="-50.6677" y1="177.988" x2="400.758" y2="190.379" gradientUnits="userSpaceOnUse">
<stop stop-color="#009EDB" stop-opacity="0"/>
<stop offset="1" stop-color="#0094D7"/>
</linearGradient>
<linearGradient id="paint6_linear_1466_3" x1="-271.164" y1="371.602" x2="682.018" y2="402.642" gradientUnits="userSpaceOnUse">
<stop stop-color="#009EDB" stop-opacity="0"/>
<stop offset="1" stop-color="#0094D7"/>
</linearGradient>
<linearGradient id="paint7_linear_1466_3" x1="888.897" y1="636.823" x2="-79.8795" y2="709.328" gradientUnits="userSpaceOnUse">
<stop offset="0.0213742" stop-color="#FBB04D"/>
<stop offset="0.512169" stop-color="#0B9CD9" stop-opacity="0.59"/>
<stop offset="0.922169" stop-color="#0B9CD9" stop-opacity="0"/>
</linearGradient>
</defs>
</svg>
