<svg width="24" height="24" viewBox="0 0 24 24" fill="none" xmlns="http://www.w3.org/2000/svg">
<g clip-path="url(#clip0_448_11891)">
<path d="M5.4482 23.5V7.98195H0.303533V23.5H5.4482ZM2.87653 5.86195C4.67057 5.86195 5.78727 4.67034 5.78727 3.18123C5.75384 1.65853 4.67064 0.5 2.91058 0.5C1.15079 0.5 0 1.65856 0 3.18123C0 4.67041 1.11643 5.86195 2.84295 5.86195H2.87637H2.87653ZM8.29576 23.5H13.4404V14.834C13.4404 14.3702 13.4739 13.9069 13.6097 13.5753C13.9816 12.6487 14.8281 11.6889 16.2493 11.6889C18.1109 11.6889 18.8557 13.112 18.8557 15.1981V23.4999H24.0001V14.602C24.0001 9.83545 21.4619 7.61763 18.0771 7.61763C15.3017 7.61763 14.0832 9.17293 13.4062 10.2322H13.4405V7.98163H8.29587C8.36339 9.43776 8.29587 23.4997 8.29587 23.4997L8.29576 23.5Z" fill="white"/>
</g>
<defs>
<clipPath id="clip0_448_11891">
<rect width="24" height="23" fill="white" transform="translate(0 0.5)"/>
</clipPath>
</defs>
</svg>
