<svg width="139" height="58" viewBox="0 0 139 58" fill="none" xmlns="http://www.w3.org/2000/svg">
<path d="M23.1832 55.684H18.8359C18.8359 44.2824 28.1113 35.0031 39.5169 35.0031H56.1035V39.3503H39.5169C30.5102 39.3503 23.1832 46.6773 23.1832 55.684Z" fill="#FCB04D"/>
<path d="M4.34723 55.684H0C0 33.9716 17.6656 16.306 39.378 16.306H56.103V20.6533H39.378C20.0605 20.6533 4.34723 36.3665 4.34723 55.684Z" fill="#FCB04D"/>
<path d="M56.1035 20.681H39.5169C28.1153 20.681 18.8359 11.4055 18.8359 0H23.1832C23.1832 9.00667 30.5102 16.3337 39.5169 16.3337H56.1035V20.681Z" fill="#0B9CD9"/>
<path d="M56.1028 30.0275H39.4806C22.9216 30.0275 9.45312 16.559 9.45312 0H13.8004C13.8004 14.1601 25.3205 25.6803 39.4806 25.6803H56.1028V30.0275Z" fill="#0B9CD9"/>
<path d="M56.103 39.378H39.378C17.6656 39.378 0 21.7124 0 0H4.34723C4.34723 19.3175 20.0605 35.0308 39.378 35.0308H56.103V39.378Z" fill="#0B9CD9"/>
<path d="M13.8004 55.684H9.45312C9.45312 39.125 22.9256 25.6565 39.4806 25.6565H56.1028V30.0037H39.4806C25.3205 30.0037 13.8004 41.5239 13.8004 55.684Z" fill="#FCB04D"/>
<path d="M54.3047 23.1154V13.8677L60.5489 18.4916L54.3047 23.1154Z" fill="#0B9CD9"/>
<path d="M54.3047 32.4976V23.2498L60.5489 27.8737L54.3047 32.4976Z" fill="#FCB04D"/>
<path d="M54.3047 41.8125V32.5687L60.5489 37.1886L54.3047 41.8125Z" fill="#0B9CD9"/>
<path d="M71.289 23.3683C71.289 22.8546 71.1586 22.4633 70.8938 22.1985C70.629 21.9338 70.1508 21.6611 69.4552 21.3765C68.1866 20.8944 67.2737 20.3332 66.7204 19.689C66.1632 19.0448 65.8866 18.2821 65.8866 17.4008C65.8866 16.3337 66.266 15.4801 67.0208 14.8359C67.7756 14.1917 68.736 13.8677 69.8979 13.8677C70.6725 13.8677 71.3641 14.0297 71.9727 14.3577C72.5813 14.6857 73.0476 15.1481 73.3757 15.7409C73.7037 16.3377 73.8657 17.0135 73.8657 17.7723H71.3206C71.3206 17.1834 71.1941 16.7329 70.9412 16.4207C70.6883 16.1124 70.3247 15.9543 69.8505 15.9543C69.4039 15.9543 69.0561 16.0848 68.8071 16.3495C68.5581 16.6143 68.4317 16.9661 68.4317 17.4126C68.4317 17.7604 68.57 18.0726 68.8466 18.3532C69.1233 18.6338 69.6173 18.9263 70.3247 19.2266C71.5577 19.6732 72.4548 20.2186 73.0121 20.8667C73.5693 21.5148 73.8499 22.3408 73.8499 23.3407C73.8499 24.4393 73.4982 25.3009 72.7987 25.9214C72.0992 26.5418 71.1467 26.8501 69.9413 26.8501C69.1233 26.8501 68.3803 26.6841 67.7085 26.3482C67.0366 26.0123 66.511 25.5301 66.1316 24.9057C65.7522 24.2813 65.5625 23.5422 65.5625 22.6925H68.1234C68.1234 23.4237 68.2657 23.9532 68.5502 24.2813C68.8348 24.6093 69.2972 24.7753 69.9413 24.7753C70.8345 24.7753 71.2771 24.305 71.2771 23.3604L71.289 23.3683Z" fill="#231F20"/>
<path d="M80.1089 25.8265C79.5991 26.5141 78.9154 26.8579 78.0578 26.8579C77.2002 26.8579 76.5402 26.5615 76.0937 25.9687C75.6471 25.3759 75.4258 24.5104 75.4258 23.3762V17.2901H77.8839V23.4394C77.8958 24.3523 78.2001 24.8108 78.7969 24.8108C79.358 24.8108 79.7651 24.5658 80.0141 24.0797V17.2901H82.488V26.684H80.1801L80.1089 25.8225V25.8265Z" fill="#231F20"/>
<path d="M86.6009 17.2901L86.672 18.1595C87.2214 17.464 87.9485 17.1162 88.8536 17.1162C89.7586 17.1162 90.4541 17.539 90.8414 18.3848C91.3789 17.539 92.1456 17.1162 93.1415 17.1162C94.7855 17.1162 95.6273 18.2544 95.6669 20.5307V26.688H93.2087V20.6888C93.2087 20.1434 93.1336 19.7561 92.9834 19.5269C92.8332 19.2977 92.5764 19.1791 92.2207 19.1791C91.7623 19.1791 91.4224 19.4597 91.1971 20.0209L91.2129 20.3173V26.6919H88.7548V20.7086C88.7548 20.1711 88.6836 19.7798 88.5374 19.5388C88.3912 19.2977 88.1343 19.1791 87.7628 19.1791C87.3399 19.1791 87.004 19.4084 86.755 19.8668V26.6919H84.2969V17.298H86.597L86.6009 17.2901Z" fill="#231F20"/>
<path d="M99.847 17.2901L99.9182 18.1595C100.468 17.464 101.195 17.1162 102.096 17.1162C102.997 17.1162 103.696 17.539 104.084 18.3848C104.621 17.539 105.388 17.1162 106.384 17.1162C108.028 17.1162 108.87 18.2544 108.909 20.5307V26.688H106.451V20.6888C106.451 20.1434 106.376 19.7561 106.226 19.5269C106.075 19.2977 105.819 19.1791 105.463 19.1791C105.004 19.1791 104.665 19.4597 104.439 20.0209L104.455 20.3173V26.6919H101.997V20.7086C101.997 20.1711 101.926 19.7798 101.78 19.5388C101.633 19.2977 101.376 19.1791 101.005 19.1791C100.582 19.1791 100.246 19.4084 99.9972 19.8668V26.6919H97.5391V17.298H99.8391L99.847 17.2901Z" fill="#231F20"/>
<path d="M110.777 14.8596C110.777 14.4762 110.9 14.164 111.141 13.923C111.382 13.6819 111.71 13.5594 112.113 13.5594C112.516 13.5594 112.844 13.6819 113.085 13.923C113.326 14.164 113.449 14.4802 113.449 14.8596C113.449 15.239 113.33 15.5472 113.089 15.7962C112.848 16.0452 112.524 16.1677 112.113 16.1677C111.702 16.1677 111.378 16.0452 111.137 15.7962C110.896 15.5472 110.777 15.235 110.777 14.8596ZM113.358 26.688H110.892V17.294H113.358V26.688Z" fill="#231F20"/>
<path d="M118.17 14.9821V17.2901H119.431V19.1317H118.17V23.803C118.17 24.1745 118.221 24.4274 118.32 24.5697C118.423 24.708 118.617 24.7792 118.905 24.7792C119.142 24.7792 119.336 24.7594 119.486 24.7199L119.47 26.6287C119.055 26.7868 118.601 26.8619 118.115 26.8619C116.53 26.8619 115.728 25.9529 115.708 24.131V19.1317H114.621V17.2901H115.708V14.9821H118.166H118.17Z" fill="#231F20"/>
<path d="M124.695 21.6847C124.695 20.262 125.031 19.1436 125.703 18.3334C126.375 17.5232 127.304 17.1162 128.489 17.1162C129.675 17.1162 130.623 17.5232 131.295 18.3334C131.967 19.1436 132.303 20.2659 132.303 21.7045V22.3052C132.303 23.7358 131.971 24.8542 131.303 25.6565C130.635 26.4588 129.707 26.8619 128.505 26.8619C127.304 26.8619 126.363 26.4588 125.695 25.6486C125.027 24.8424 124.691 23.72 124.691 22.2854V21.6847H124.695ZM127.161 22.3012C127.161 23.9888 127.612 24.8345 128.509 24.8345C129.335 24.8345 129.782 24.131 129.845 22.7202L129.853 21.6808C129.853 20.8192 129.734 20.179 129.497 19.764C129.26 19.3491 128.924 19.1396 128.489 19.1396C128.055 19.1396 127.746 19.3491 127.513 19.764C127.28 20.179 127.161 20.8192 127.161 21.6808V22.3012Z" fill="#231F20"/>
<path d="M134.447 26.688V19.1318H133.309V17.2901H134.447V16.4483C134.451 15.4129 134.727 14.6067 135.269 14.0297C135.81 13.4527 136.557 13.1642 137.514 13.1642C137.802 13.1642 138.174 13.2235 138.624 13.3381L138.608 15.3022C138.442 15.2509 138.241 15.2232 138.008 15.2232C137.276 15.2232 136.913 15.6579 136.913 16.5274V17.2901H138.379V19.1318H136.913V26.688H134.447Z" fill="#231F20"/>
<path d="M68.6856 30.395V32.703H69.9463V34.5446H68.6856V39.2159C68.6856 39.5874 68.737 39.8403 68.8358 39.9826C68.9386 40.1209 69.1322 40.192 69.4207 40.192C69.6578 40.192 69.8515 40.1723 70.0017 40.1328L69.9859 42.0416C69.5709 42.1997 69.1164 42.2748 68.6303 42.2748C67.0455 42.2748 66.2433 41.3658 66.2235 39.5439V34.5446H65.1367V32.703H66.2235V30.395H68.6817H68.6856Z" fill="#231F20"/>
<path d="M73.7395 33.529C74.273 32.865 74.9251 32.5291 75.7036 32.5291C76.5612 32.5291 77.2133 32.8294 77.6559 33.4341C78.0985 34.0388 78.3278 34.9319 78.3317 36.1254V42.1009H75.8656V36.1531C75.8656 35.6038 75.7787 35.2046 75.6088 34.9596C75.4388 34.7146 75.1622 34.592 74.7788 34.592C74.3323 34.592 73.9845 34.7976 73.7355 35.2086V42.1048H71.2773V28.7668H73.7355V33.5329L73.7395 33.529Z" fill="#231F20"/>
<path d="M83.9449 42.2748C82.6842 42.2748 81.7002 41.8994 80.9927 41.1445C80.2853 40.3897 79.9336 39.3147 79.9336 37.9157V37.1688C79.9336 35.6868 80.2577 34.5446 80.9058 33.7384C81.5539 32.9322 82.4827 32.5331 83.692 32.5331C84.9013 32.5331 85.7628 32.9085 86.3596 33.6633C86.9563 34.4182 87.2607 35.5366 87.2725 37.0146V38.22H82.3839C82.4194 38.9235 82.5736 39.4372 82.8462 39.7653C83.1189 40.0893 83.5378 40.2553 84.1069 40.2553C84.929 40.2553 85.6166 39.9668 86.1659 39.3938L87.1302 40.8797C86.8299 41.2947 86.3912 41.6346 85.8182 41.8914C85.2451 42.1483 84.6207 42.2787 83.9528 42.2787L83.9449 42.2748ZM82.3997 36.5088H84.8578V36.2796C84.846 35.7144 84.7551 35.2837 84.5812 34.9912C84.4073 34.6988 84.1069 34.5525 83.6762 34.5525C83.2454 34.5525 82.9371 34.7067 82.7435 35.0189C82.5498 35.3271 82.4352 35.8251 82.3997 36.5088Z" fill="#231F20"/>
<path d="M99.5091 36.9395H95.5413V42.0969H92.9883V29.4544H99.9873V31.5806H95.5413V34.8212H99.5091V36.9395Z" fill="#231F20"/>
<path d="M105.808 41.2394C105.298 41.927 104.615 42.2709 103.757 42.2709C102.899 42.2709 102.239 41.9745 101.793 41.3817C101.346 40.7888 101.125 39.9234 101.125 38.7891V32.703H103.583V38.8524C103.595 39.7653 103.899 40.2237 104.496 40.2237C105.057 40.2237 105.464 39.9787 105.713 39.4926V32.703H108.187V42.097H105.879L105.808 41.2354V41.2394Z" fill="#231F20"/>
<path d="M112.85 30.395V32.703H114.11V34.5446H112.85V39.2159C112.85 39.5874 112.901 39.8403 113 39.9826C113.103 40.1209 113.296 40.192 113.585 40.192C113.822 40.192 114.016 40.1723 114.166 40.1328L114.15 42.0416C113.735 42.1997 113.28 42.2748 112.794 42.2748C111.21 42.2748 110.407 41.3658 110.388 39.5439V34.5446H109.301V32.703H110.388V30.395H112.846H112.85Z" fill="#231F20"/>
<path d="M120.125 41.2394C119.615 41.927 118.931 42.2709 118.073 42.2709C117.216 42.2709 116.556 41.9745 116.109 41.3817C115.663 40.7888 115.441 39.9234 115.441 38.7891V32.703H117.9V38.8524C117.911 39.7653 118.216 40.2237 118.812 40.2237C119.374 40.2237 119.781 39.9787 120.03 39.4926V32.703H122.504V42.097H120.196L120.125 41.2354V41.2394Z" fill="#231F20"/>
<path d="M128.948 35.0742L128.13 35.0031C127.458 35.0031 127.004 35.2995 126.767 35.8883V42.097H124.301V32.703H126.621L126.692 33.7187C127.079 32.9243 127.617 32.5291 128.296 32.5291C128.573 32.5291 128.798 32.5686 128.972 32.6437L128.944 35.0742H128.948Z" fill="#231F20"/>
<path d="M133.894 42.2748C132.633 42.2748 131.649 41.8994 130.942 41.1445C130.235 40.3897 129.883 39.3147 129.883 37.9157V37.1688C129.883 35.6868 130.207 34.5446 130.855 33.7384C131.503 32.9322 132.432 32.5331 133.641 32.5331C134.851 32.5331 135.712 32.9085 136.309 33.6633C136.906 34.4182 137.21 35.5366 137.222 37.0146V38.22H132.333C132.369 38.9235 132.523 39.4372 132.795 39.7653C133.068 40.0893 133.487 40.2553 134.056 40.2553C134.878 40.2553 135.566 39.9668 136.115 39.3938L137.079 40.8797C136.779 41.2947 136.34 41.6346 135.767 41.8914C135.194 42.1483 134.57 42.2787 133.902 42.2787L133.894 42.2748ZM132.349 36.5088H134.807V36.2796C134.795 35.7144 134.704 35.2837 134.53 34.9912C134.357 34.6988 134.056 34.5525 133.625 34.5525C133.195 34.5525 132.886 34.7067 132.693 35.0189C132.499 35.3271 132.384 35.8251 132.349 36.5088Z" fill="#231F20"/>
<path d="M69.5972 53.4512C69.5972 54.3325 69.4075 55.0123 69.032 55.4865C68.6566 55.9647 68.1231 56.2018 67.4315 56.2018C66.7399 56.2018 66.238 55.9687 65.8546 55.5063C65.4673 55.0439 65.2697 54.3879 65.2539 53.5421V52.3249C65.2539 51.4594 65.4436 50.7836 65.827 50.2936C66.2103 49.8035 66.7399 49.5585 67.4236 49.5585C68.1073 49.5585 68.6329 49.7917 69.0162 50.2619C69.3956 50.7322 69.5893 51.4001 69.6011 52.2696V53.4473L69.5972 53.4512ZM68.787 52.321C68.787 51.6373 68.6764 51.1274 68.4511 50.7955C68.2298 50.4635 67.886 50.2975 67.4236 50.2975C66.9612 50.2975 66.6371 50.4675 66.4079 50.8034C66.1787 51.1393 66.0641 51.6373 66.0601 52.2933V53.4512C66.0601 54.1112 66.1747 54.6131 66.4039 54.9609C66.6332 55.3087 66.977 55.4786 67.4315 55.4786C67.886 55.4786 68.2258 55.3205 68.4432 55.0004C68.6606 54.6803 68.7752 54.1903 68.787 53.5303V52.317V52.321Z" fill="#231F20"/>
<path d="M73.0207 55.692C72.7599 56.0319 72.3805 56.2018 71.8786 56.2018C71.4439 56.2018 71.1158 56.0516 70.8945 55.7513C70.6732 55.4509 70.5586 55.0122 70.5586 54.4392V51.3092H71.3411V54.3799C71.3411 55.1269 71.5664 55.5023 72.0169 55.5023C72.4951 55.5023 72.8231 55.2889 73.0009 54.8621V51.3052H73.7874V56.107H73.0405L73.0247 55.6841L73.0207 55.692Z" fill="#231F20"/>
<path d="M76.773 52.0482C76.6623 52.0284 76.5438 52.0166 76.4173 52.0166C76.0142 52.0166 75.7336 52.2379 75.5755 52.6766V56.1109H74.7891V51.3092H75.5518L75.5637 51.7992C75.7731 51.4159 76.0695 51.2222 76.4568 51.2222C76.5793 51.2222 76.686 51.242 76.769 51.2855V52.0482H76.773Z" fill="#231F20"/>
<path d="M83.451 54.0597C83.4154 54.7513 83.2218 55.2809 82.8661 55.6524C82.5144 56.02 82.0125 56.2057 81.3683 56.2057C80.7241 56.2057 80.2064 55.9607 79.823 55.4667C79.4397 54.9727 79.25 54.3048 79.25 53.463V52.2932C79.25 51.4514 79.4476 50.7875 79.8389 50.3014C80.2301 49.8153 80.7676 49.5702 81.4434 49.5702C82.0678 49.5702 82.5499 49.756 82.8938 50.1314C83.2336 50.5029 83.4194 51.0364 83.451 51.732H82.629C82.5934 51.2064 82.4828 50.8309 82.297 50.6057C82.1113 50.3804 81.8267 50.2698 81.4434 50.2698C81.0007 50.2698 80.6648 50.4436 80.4277 50.7875C80.1906 51.1313 80.072 51.6372 80.072 52.305V53.4907C80.072 54.1427 80.1827 54.6446 80.404 54.9964C80.6253 55.3442 80.9454 55.522 81.3683 55.522C81.7912 55.522 82.0955 55.4153 82.2812 55.2058C82.467 54.9964 82.5816 54.617 82.629 54.0756H83.451V54.0597Z" fill="#231F20"/>
<path d="M84.1055 53.4907C84.1055 52.7912 84.2754 52.2379 84.6153 51.8348C84.9552 51.4278 85.4017 51.2262 85.959 51.2262C86.5162 51.2262 86.9628 51.4238 87.3027 51.819C87.6425 52.2142 87.8164 52.7556 87.8243 53.4393V53.9452C87.8243 54.6408 87.6544 55.1901 87.3185 55.5971C86.9825 56.0042 86.532 56.2058 85.9708 56.2058C85.4096 56.2058 84.967 56.0082 84.6311 55.6169C84.2952 55.2257 84.1213 54.6921 84.1094 54.0203V53.4947L84.1055 53.4907ZM84.8919 53.9452C84.8919 54.4392 84.9907 54.8265 85.1844 55.111C85.378 55.3956 85.6389 55.5339 85.9669 55.5339C86.6585 55.5339 87.0142 55.032 87.0379 54.0321V53.4907C87.0379 53.0007 86.9391 52.6094 86.7454 52.3249C86.5518 52.0403 86.287 51.8981 85.959 51.8981C85.6309 51.8981 85.378 52.0403 85.1844 52.3249C84.9907 52.6094 84.8919 52.9967 84.8919 53.4868V53.9452Z" fill="#231F20"/>
<path d="M89.3991 51.3131L89.4149 51.7557C89.7074 51.4001 90.0947 51.2222 90.5729 51.2222C91.1064 51.2222 91.4819 51.4554 91.6953 51.9178C91.9956 51.4514 92.4185 51.2222 92.956 51.2222C93.8412 51.2222 94.2917 51.7755 94.3155 52.8781V56.1148H93.533V52.9532C93.533 52.6054 93.4697 52.3446 93.3472 52.1747C93.2247 52.0047 93.0113 51.9178 92.7188 51.9178C92.4817 51.9178 92.292 52.0087 92.1418 52.1944C91.9956 52.3762 91.9087 52.6133 91.885 52.8939V56.1109H91.0946V52.9137C91.0867 52.2497 90.814 51.9138 90.2844 51.9138C89.8892 51.9138 89.6086 52.1114 89.4466 52.5066V56.1069H88.6641V51.3052H89.3991V51.3131Z" fill="#231F20"/>
<path d="M96.0671 51.3131L96.0829 51.7557C96.3754 51.4001 96.7627 51.2222 97.2409 51.2222C97.7744 51.2222 98.1498 51.4554 98.3632 51.9178C98.6636 51.4514 99.0865 51.2222 99.6239 51.2222C100.509 51.2222 100.96 51.7755 100.983 52.8781V56.1148H100.201V52.9532C100.201 52.6054 100.138 52.3446 100.015 52.1747C99.8927 52.0047 99.6793 51.9178 99.3868 51.9178C99.1497 51.9178 98.96 52.0087 98.8098 52.1944C98.6636 52.3762 98.5766 52.6133 98.5529 52.8939V56.1109H97.7625V52.9137C97.7546 52.2497 97.4819 51.9138 96.9524 51.9138C96.5572 51.9138 96.2766 52.1114 96.1145 52.5066V56.1069H95.332V51.3052H96.0671V51.3131Z" fill="#231F20"/>
<path d="M101.828 53.4907C101.828 52.7912 101.998 52.2379 102.338 51.8348C102.678 51.4278 103.124 51.2262 103.682 51.2262C104.239 51.2262 104.685 51.4238 105.025 51.819C105.365 52.2142 105.539 52.7556 105.547 53.4393V53.9452C105.547 54.6408 105.377 55.1901 105.041 55.5971C104.705 56.0042 104.255 56.2058 103.693 56.2058C103.132 56.2058 102.69 56.0082 102.354 55.6169C102.018 55.2217 101.844 54.6921 101.832 54.0203V53.4947L101.828 53.4907ZM102.615 53.9452C102.615 54.4392 102.713 54.8265 102.907 55.111C103.101 55.3956 103.362 55.5339 103.69 55.5339C104.381 55.5339 104.737 55.032 104.761 54.0321V53.4907C104.761 53.0007 104.662 52.6094 104.468 52.3249C104.274 52.0403 104.01 51.8981 103.682 51.8981C103.354 51.8981 103.101 52.0403 102.907 52.3249C102.713 52.6094 102.615 52.9967 102.615 53.4868V53.9452Z" fill="#231F20"/>
<path d="M107.126 51.3131L107.15 51.8308C107.454 51.4238 107.845 51.2222 108.315 51.2222C109.165 51.2222 109.596 51.7874 109.608 52.9216V56.1109H108.825V52.9572C108.825 52.5817 108.762 52.313 108.635 52.1549C108.509 51.9968 108.323 51.9178 108.07 51.9178C107.877 51.9178 107.699 51.981 107.545 52.1114C107.391 52.2418 107.264 52.4118 107.169 52.6212V56.1109H106.383V51.3092H107.126V51.3131Z" fill="#231F20"/>
<path d="M115.642 54.4234H113.457L112.955 56.1148H112.121L114.204 49.6533H114.899L116.986 56.1148H116.152L115.642 54.4234ZM113.67 53.7278H115.433L114.548 50.7915L113.67 53.7278Z" fill="#231F20"/>
<path d="M117.43 53.4946C117.43 52.7477 117.564 52.1786 117.837 51.7953C118.109 51.4119 118.509 51.2222 119.03 51.2222C119.52 51.2222 119.888 51.4317 120.145 51.8466L120.184 51.3092H120.896V56.1543C120.896 56.7472 120.741 57.2056 120.437 57.5218C120.133 57.8379 119.706 57.9999 119.165 57.9999C118.927 57.9999 118.663 57.9407 118.366 57.8261C118.07 57.7075 117.853 57.5652 117.702 57.3913L118.022 56.8499C118.347 57.17 118.706 57.3281 119.101 57.3281C119.753 57.3281 120.089 56.9724 120.109 56.2571V55.6327C119.856 56.0081 119.493 56.1978 119.026 56.1978C118.528 56.1978 118.141 56.0121 117.864 55.6366C117.588 55.2612 117.442 54.7237 117.43 54.0242V53.4907V53.4946ZM118.216 53.9412C118.216 54.4787 118.295 54.8739 118.453 55.1268C118.611 55.3798 118.872 55.5062 119.232 55.5062C119.623 55.5062 119.916 55.3086 120.109 54.9095V52.5106C119.904 52.1193 119.615 51.9217 119.24 51.9217C118.864 51.9217 118.619 52.0482 118.457 52.3011C118.299 52.5541 118.216 52.9414 118.212 53.463V53.9412H118.216Z" fill="#231F20"/>
<path d="M123.604 56.2018C123.007 56.2018 122.548 56.024 122.228 55.6683C121.908 55.3126 121.746 54.787 121.738 54.0993V53.5184C121.738 52.8031 121.896 52.2419 122.209 51.8348C122.521 51.4278 122.956 51.2262 123.517 51.2262C124.078 51.2262 124.501 51.404 124.777 51.7637C125.054 52.1233 125.196 52.6806 125.204 53.4354V53.9491H122.525V54.0598C122.525 54.5736 122.624 54.949 122.817 55.1822C123.011 55.4154 123.291 55.5339 123.655 55.5339C123.884 55.5339 124.09 55.4904 124.264 55.4035C124.441 55.3166 124.604 55.1782 124.758 54.9885L125.165 55.4865C124.825 55.9647 124.307 56.2058 123.608 56.2058L123.604 56.2018ZM123.517 51.8981C123.193 51.8981 122.952 52.0087 122.793 52.234C122.635 52.4592 122.548 52.8031 122.529 53.2734H124.418V53.1667C124.398 52.7122 124.315 52.3841 124.173 52.1905C124.03 51.9968 123.809 51.8981 123.517 51.8981Z" fill="#231F20"/>
<path d="M126.712 51.3131L126.735 51.8308C127.04 51.4238 127.431 51.2222 127.901 51.2222C128.751 51.2222 129.182 51.7874 129.194 52.9216V56.1109H128.411V52.9572C128.411 52.5817 128.348 52.313 128.221 52.1549C128.095 51.9968 127.905 51.9178 127.656 51.9178C127.463 51.9178 127.285 51.981 127.131 52.1114C126.977 52.2418 126.85 52.4118 126.755 52.6212V56.1109H125.969V51.3092H126.712V51.3131Z" fill="#231F20"/>
<path d="M130.031 53.4947C130.031 52.7556 130.17 52.1905 130.446 51.8032C130.723 51.4159 131.122 51.2223 131.636 51.2223C132.094 51.2223 132.454 51.408 132.711 51.7834V49.2976H133.497V56.1149H132.778L132.738 55.6011C132.482 56.0042 132.114 56.2058 131.632 56.2058C131.15 56.2058 130.747 56.0121 130.462 55.6248C130.178 55.2375 130.035 54.6921 130.027 53.9887V53.4947H130.031ZM130.818 53.9413C130.818 54.4787 130.897 54.8739 131.059 55.1269C131.217 55.3798 131.478 55.5063 131.841 55.5063C132.233 55.5063 132.525 55.3087 132.715 54.9174V52.4988C132.513 52.1154 132.225 51.9218 131.845 51.9218C131.466 51.9218 131.225 52.0482 131.063 52.3012C130.905 52.5541 130.822 52.9414 130.818 53.4631V53.9413Z" fill="#231F20"/>
<path d="M137.006 56.1148C136.959 56.0121 136.923 55.8382 136.903 55.5892C136.627 55.9963 136.271 56.2018 135.836 56.2018C135.402 56.2018 135.062 56.0793 134.817 55.8342C134.572 55.5892 134.449 55.2454 134.449 54.8028C134.449 54.3127 134.615 53.9254 134.947 53.6409C135.279 53.3524 135.734 53.2061 136.311 53.2022H136.888V52.6924C136.888 52.4039 136.824 52.2023 136.698 52.0798C136.571 51.9573 136.378 51.898 136.117 51.898C135.88 51.898 135.686 51.9692 135.54 52.1075C135.39 52.2498 135.319 52.4276 135.319 52.641H134.532C134.532 52.396 134.603 52.1628 134.75 51.9375C134.896 51.7162 135.089 51.5384 135.334 51.4119C135.58 51.2855 135.852 51.2222 136.156 51.2222C136.647 51.2222 137.022 51.3447 137.279 51.5898C137.536 51.8348 137.666 52.1905 137.67 52.6568V55.0794C137.67 55.4509 137.721 55.771 137.82 56.0437V56.1148H137.002H137.006ZM135.959 55.4904C136.153 55.4904 136.334 55.439 136.508 55.3323C136.682 55.2256 136.809 55.0913 136.892 54.9332V53.7871H136.449C136.077 53.795 135.781 53.878 135.564 54.0361C135.346 54.1981 135.24 54.4234 135.24 54.7119C135.24 54.9846 135.295 55.1822 135.406 55.3047C135.516 55.4272 135.702 55.4904 135.959 55.4904Z" fill="#231F20"/>
</svg>
